<mxfile host="app.diagrams.net" agent="Mozilla/5.0 (Windows NT 10.0; Win64; x64) AppleWebKit/537.36 (KHTML, like Gecko) Chrome/131.0.0.0 Safari/537.36 OPR/116.0.0.0" version="26.0.9">
  <diagram id="C5RBs43oDa-KdzZeNtuy" name="Page-1">
    <mxGraphModel dx="1392" dy="753" grid="1" gridSize="10" guides="1" tooltips="1" connect="1" arrows="1" fold="1" page="1" pageScale="1" pageWidth="827" pageHeight="1169" math="0" shadow="0">
      <root>
        <mxCell id="WIyWlLk6GJQsqaUBKTNV-0" />
        <mxCell id="WIyWlLk6GJQsqaUBKTNV-1" parent="WIyWlLk6GJQsqaUBKTNV-0" />
        <mxCell id="WIyWlLk6GJQsqaUBKTNV-3" value="API&lt;div&gt;(https://openlibrary.org/dev/docs/api/covers)&lt;/div&gt;" style="rounded=1;whiteSpace=wrap;html=1;fontSize=12;glass=0;strokeWidth=1;shadow=0;" parent="WIyWlLk6GJQsqaUBKTNV-1" vertex="1">
          <mxGeometry x="550" y="30" width="250" height="80" as="geometry" />
        </mxCell>
        <mxCell id="PwXOOknvu7CsN1NppEB0-25" style="edgeStyle=orthogonalEdgeStyle;rounded=0;orthogonalLoop=1;jettySize=auto;html=1;entryX=0.5;entryY=0;entryDx=0;entryDy=0;" edge="1" parent="WIyWlLk6GJQsqaUBKTNV-1" source="PwXOOknvu7CsN1NppEB0-0" target="PwXOOknvu7CsN1NppEB0-1">
          <mxGeometry relative="1" as="geometry" />
        </mxCell>
        <mxCell id="PwXOOknvu7CsN1NppEB0-0" value="DataBase - PostGresql" style="rounded=1;whiteSpace=wrap;html=1;fontSize=12;glass=0;strokeWidth=1;shadow=0;" vertex="1" parent="WIyWlLk6GJQsqaUBKTNV-1">
          <mxGeometry x="90" y="50" width="160" height="40" as="geometry" />
        </mxCell>
        <mxCell id="PwXOOknvu7CsN1NppEB0-28" style="edgeStyle=orthogonalEdgeStyle;rounded=0;orthogonalLoop=1;jettySize=auto;html=1;entryX=0;entryY=0.5;entryDx=0;entryDy=0;" edge="1" parent="WIyWlLk6GJQsqaUBKTNV-1" source="PwXOOknvu7CsN1NppEB0-1" target="PwXOOknvu7CsN1NppEB0-26">
          <mxGeometry relative="1" as="geometry" />
        </mxCell>
        <mxCell id="PwXOOknvu7CsN1NppEB0-1" value="BOOKS" style="swimlane;fontStyle=0;childLayout=stackLayout;horizontal=1;startSize=30;horizontalStack=0;resizeParent=1;resizeParentMax=0;resizeLast=0;collapsible=1;marginBottom=0;whiteSpace=wrap;html=1;strokeWidth=1;rounded=0;" vertex="1" parent="WIyWlLk6GJQsqaUBKTNV-1">
          <mxGeometry x="70" y="130" width="200" height="150" as="geometry" />
        </mxCell>
        <mxCell id="PwXOOknvu7CsN1NppEB0-2" value="book cover&lt;div&gt;(fetching adress)&lt;/div&gt;" style="text;strokeColor=none;fillColor=none;align=left;verticalAlign=middle;spacingLeft=4;spacingRight=4;overflow=hidden;points=[[0,0.5],[1,0.5]];portConstraint=eastwest;rotatable=0;whiteSpace=wrap;html=1;" vertex="1" parent="PwXOOknvu7CsN1NppEB0-1">
          <mxGeometry y="30" width="200" height="30" as="geometry" />
        </mxCell>
        <mxCell id="PwXOOknvu7CsN1NppEB0-22" value="book title" style="text;strokeColor=none;fillColor=none;align=left;verticalAlign=middle;spacingLeft=4;spacingRight=4;overflow=hidden;points=[[0,0.5],[1,0.5]];portConstraint=eastwest;rotatable=0;whiteSpace=wrap;html=1;" vertex="1" parent="PwXOOknvu7CsN1NppEB0-1">
          <mxGeometry y="60" width="200" height="30" as="geometry" />
        </mxCell>
        <mxCell id="PwXOOknvu7CsN1NppEB0-3" value="rating" style="text;strokeColor=none;fillColor=none;align=left;verticalAlign=middle;spacingLeft=4;spacingRight=4;overflow=hidden;points=[[0,0.5],[1,0.5]];portConstraint=eastwest;rotatable=0;whiteSpace=wrap;html=1;" vertex="1" parent="PwXOOknvu7CsN1NppEB0-1">
          <mxGeometry y="90" width="200" height="30" as="geometry" />
        </mxCell>
        <mxCell id="PwXOOknvu7CsN1NppEB0-4" value="comment(s)" style="text;strokeColor=none;fillColor=none;align=left;verticalAlign=middle;spacingLeft=4;spacingRight=4;overflow=hidden;points=[[0,0.5],[1,0.5]];portConstraint=eastwest;rotatable=0;whiteSpace=wrap;html=1;" vertex="1" parent="PwXOOknvu7CsN1NppEB0-1">
          <mxGeometry y="120" width="200" height="30" as="geometry" />
        </mxCell>
        <mxCell id="PwXOOknvu7CsN1NppEB0-27" style="edgeStyle=orthogonalEdgeStyle;rounded=0;orthogonalLoop=1;jettySize=auto;html=1;entryX=1;entryY=0.5;entryDx=0;entryDy=0;" edge="1" parent="WIyWlLk6GJQsqaUBKTNV-1" source="PwXOOknvu7CsN1NppEB0-26" target="PwXOOknvu7CsN1NppEB0-22">
          <mxGeometry relative="1" as="geometry" />
        </mxCell>
        <mxCell id="PwXOOknvu7CsN1NppEB0-47" style="edgeStyle=orthogonalEdgeStyle;rounded=0;orthogonalLoop=1;jettySize=auto;html=1;exitX=0.5;exitY=1;exitDx=0;exitDy=0;entryX=0.5;entryY=0;entryDx=0;entryDy=0;" edge="1" parent="WIyWlLk6GJQsqaUBKTNV-1" source="PwXOOknvu7CsN1NppEB0-26" target="PwXOOknvu7CsN1NppEB0-42">
          <mxGeometry relative="1" as="geometry" />
        </mxCell>
        <mxCell id="PwXOOknvu7CsN1NppEB0-26" value="SERVER" style="rounded=1;whiteSpace=wrap;html=1;" vertex="1" parent="WIyWlLk6GJQsqaUBKTNV-1">
          <mxGeometry x="374" y="175" width="80" height="60" as="geometry" />
        </mxCell>
        <mxCell id="PwXOOknvu7CsN1NppEB0-33" style="edgeStyle=orthogonalEdgeStyle;rounded=0;orthogonalLoop=1;jettySize=auto;html=1;" edge="1" parent="WIyWlLk6GJQsqaUBKTNV-1" source="PwXOOknvu7CsN1NppEB0-30" target="PwXOOknvu7CsN1NppEB0-26">
          <mxGeometry relative="1" as="geometry" />
        </mxCell>
        <mxCell id="PwXOOknvu7CsN1NppEB0-30" value="fetch covers" style="shape=step;perimeter=stepPerimeter;whiteSpace=wrap;html=1;fixedSize=1;direction=west;" vertex="1" parent="WIyWlLk6GJQsqaUBKTNV-1">
          <mxGeometry x="600" y="165" width="120" height="80" as="geometry" />
        </mxCell>
        <mxCell id="PwXOOknvu7CsN1NppEB0-32" style="edgeStyle=orthogonalEdgeStyle;rounded=0;orthogonalLoop=1;jettySize=auto;html=1;entryX=0.375;entryY=0.938;entryDx=0;entryDy=0;entryPerimeter=0;" edge="1" parent="WIyWlLk6GJQsqaUBKTNV-1" source="WIyWlLk6GJQsqaUBKTNV-3" target="PwXOOknvu7CsN1NppEB0-30">
          <mxGeometry relative="1" as="geometry" />
        </mxCell>
        <mxCell id="PwXOOknvu7CsN1NppEB0-35" value="NEW BOOK:" style="swimlane;whiteSpace=wrap;html=1;" vertex="1" parent="WIyWlLk6GJQsqaUBKTNV-1">
          <mxGeometry x="314" y="470" width="200" height="130" as="geometry" />
        </mxCell>
        <mxCell id="PwXOOknvu7CsN1NppEB0-45" value="-Need to be able to get a cover for a new book&lt;div&gt;-Fields to insert rating and comments&lt;/div&gt;" style="text;strokeColor=none;fillColor=none;align=left;verticalAlign=middle;spacingLeft=4;spacingRight=4;overflow=hidden;points=[[0,0.5],[1,0.5]];portConstraint=eastwest;rotatable=0;whiteSpace=wrap;html=1;" vertex="1" parent="PwXOOknvu7CsN1NppEB0-35">
          <mxGeometry x="10" y="30" width="180" height="80" as="geometry" />
        </mxCell>
        <mxCell id="PwXOOknvu7CsN1NppEB0-48" style="edgeStyle=orthogonalEdgeStyle;rounded=0;orthogonalLoop=1;jettySize=auto;html=1;entryX=0.5;entryY=0;entryDx=0;entryDy=0;" edge="1" parent="WIyWlLk6GJQsqaUBKTNV-1" source="PwXOOknvu7CsN1NppEB0-42" target="PwXOOknvu7CsN1NppEB0-35">
          <mxGeometry relative="1" as="geometry" />
        </mxCell>
        <mxCell id="PwXOOknvu7CsN1NppEB0-42" value="BOOKS:" style="swimlane;whiteSpace=wrap;html=1;" vertex="1" parent="WIyWlLk6GJQsqaUBKTNV-1">
          <mxGeometry x="314" y="270" width="200" height="160" as="geometry" />
        </mxCell>
        <mxCell id="PwXOOknvu7CsN1NppEB0-46" value="ForEach book:&lt;div&gt;show cover, rating and comment&lt;/div&gt;&lt;div&gt;Option to add a new book probably in the beginning??&lt;/div&gt;" style="text;strokeColor=none;fillColor=none;align=left;verticalAlign=middle;spacingLeft=4;spacingRight=4;overflow=hidden;points=[[0,0.5],[1,0.5]];portConstraint=eastwest;rotatable=0;whiteSpace=wrap;html=1;" vertex="1" parent="PwXOOknvu7CsN1NppEB0-42">
          <mxGeometry x="10" y="50" width="180" height="80" as="geometry" />
        </mxCell>
      </root>
    </mxGraphModel>
  </diagram>
</mxfile>
